<svg xmlns="http://www.w3.org/2000/svg" xmlns:xlink="http://www.w3.org/1999/xlink" viewBox="0 0 24 24" version="1.1" x="0px" y="0px"><title>icon/circle-link-solid</title><desc>Created with Sketch.</desc><g stroke="none" stroke-width="1" fill="none" fill-rule="evenodd"><path d="M19,12 C19,10.346 17.654,9 16,9 L15,9 C13.696,9 12.584,9.836 12.171,11 L11.829,11 C11.416,9.836 10.304,9 9,9 L8,9 C6.346,9 5,10.346 5,12 C5,13.654 6.346,15 8,15 L9,15 C10.304,15 11.416,14.164 11.829,13 L12.171,13 C12.584,14.164 13.696,15 15,15 L16,15 C17.654,15 19,13.654 19,12 M22,12 C22,17.522 17.522,22 12,22 C6.478,22 2,17.522 2,12 C2,6.478 6.478,2 12,2 C17.522,2 22,6.478 22,12 M16,11 L15,11 L15,13 L16,13 C16.552,13 17,12.551 17,12 C17,11.449 16.552,11 16,11 M8,11 L9,11 L9,13 L8,13 C7.448,13 7,12.551 7,12 C7,11.449 7.448,11 8,11" fill="#000000"/></g></svg>